<svg height="473" width="630" viewBox="0 0 640 480" xmlns="http://www.w3.org/2000/svg" version="1.2">
	<title>ar-svg</title>
	<style>
		.s0 { fill: #74acdf } 
		.s1 { fill: #ffffff } 
		.s2 { fill: #f6b40e;stroke: #85340a;stroke-width: 1.1 } 
		.s3 { fill: #85340a } 
		.s4 { fill: #f6b40e;stroke: #85340a;stroke-width: 1.4 } 
		.s5 { fill: #843511 } 
	</style>
	<path d="m0 0h640v480h-640z" class="s0"></path>
	<path d="m0 160h640v160h-640z" class="s1"></path>
	<g id="c">
		<path d="m316.9 241.2l27.4 59.6c0 0 0.5 1.1 1.2 0.8 0.8-0.4 0.3-1.5 0.3-1.5l-22.7-61.4m-0.7 23.2c-0.4 9 5.2 14 4.5 22.1-0.8 8.1 3.7 12.6 4.8 15.8 1 3.2-1.1 5-0.3 5.5 1 0.5 2.9-2 2.3-6.5-0.6-4.5-4-5.8-3.2-15.7 0.7-9.9-4.1-12.2-2.9-21.1" class="s2" id="a"></path>
		<path d="m316.7 240l2.5 65.4c0 0 0 1.3 0.8 1.3 0.9 0 0.9-1.3 0.9-1.3l2.5-65.5m-9.6 21.2c-3.8 8.2-0.5 15-4.2 22.2-3.9 7.2-1.5 13.1-1.7 16.4-0.3 3.3-2.9 4.2-2.3 5 0.7 0.8 3.4-0.8 4.6-5.2 1.1-4.3-1.5-6.8 3-15.7 4.5-8.8 0.9-12.8 5.4-20.6" class="s2" id="a"></path>
		<path d="m316.9 238.7l-22.7 61.4c0 0-0.5 1.2 0.3 1.5 0.8 0.3 1.3-0.8 1.3-0.8l27.3-59.6m-16.9 16c-6.6 6.1-6.2 13.6-12.4 18.8-6.3 5.2-6.4 11.5-7.8 14.6-1.6 2.9-4.4 2.7-4.1 3.6 0.4 1.1 3.5 0.6 6.3-2.9 2.6-3.6 1.2-7 8.7-13.4 7.6-6.5 5.8-11.5 12.9-17" class="s2" id="a"></path>
		<path d="m317.7 237.6l-44.5 48.1c0 0-0.9 0.9-0.4 1.5 0.7 0.5 1.6-0.3 1.6-0.3l48-44.6m-21.7 8.3c-8.5 3.1-11 10.1-18.7 12.6-7.8 2.4-10.3 8.2-12.8 10.5-2.5 2.1-5 0.9-5.1 1.8-0.1 1.1 2.9 1.9 6.9-0.3 3.8-2.3 3.8-6 13.2-9 9.4-3.1 9.7-8.4 18.4-10.8" class="s2" id="a"></path>
		<path d="m324.1 263.4c0.5 8.7 5.4 12.5 4.4 20.5 2.2-6.3-2.9-11.2-2.6-20.4m-7.4-22.8l18.7 40.9-15.7-42.2" class="s3" id="b"></path>
		<path d="m314.8 263.2c-2.8 8.2 0.2 13.6-3.7 20.6 4.3-5 1.5-11.4 5.3-19.8m1.9-24l1.7 45 1.6-44.9" class="s3" id="b"></path>
		<path d="m306.4 259.5c-5.8 6.4-5.1 12.6-11.4 17.6 5.9-3 5.8-10 12.5-16.3m10.9-21.4l-15.6 42.1 18.7-40.8" class="s3" id="b"></path>
		<path d="m299.9 252.8c-7.8 3.7-9.4 9.7-17.2 11.9 6.6-0.5 9.2-7 17.8-10.3m18.3-15.6l-30.6 33 32.9-30.6" class="s3" id="b"></path>
	</g>
	<g id="c">
		<path d="m318.8 236.9l-59.6 27.4c0 0-1.1 0.5-0.8 1.2 0.4 0.8 1.5 0.3 1.5 0.3l61.4-22.7m-23.2-0.7c-9-0.4-14 5.2-22.1 4.5-8.1-0.8-12.6 3.7-15.8 4.8-3.2 1-5-1.1-5.5-0.3-0.5 1 2 2.9 6.5 2.3 4.5-0.6 5.8-4 15.7-3.2 9.9 0.7 12.2-4.1 21.1-2.9" class="s2" id="a"></path>
		<path d="m320 236.7l-65.4 2.5c0 0-1.3 0-1.3 0.8 0 0.9 1.3 0.9 1.3 0.9l65.5 2.5m-21.2-9.6c-8.2-3.8-15-0.5-22.2-4.2-7.2-3.9-13.1-1.5-16.4-1.7-3.3-0.3-4.2-2.9-5-2.3-0.8 0.7 0.8 3.4 5.2 4.6 4.3 1.1 6.8-1.5 15.7 3 8.8 4.5 12.8 0.9 20.6 5.4" class="s2" id="a"></path>
		<path d="m321.3 236.9l-61.4-22.7c0 0-1.2-0.5-1.5 0.3-0.3 0.8 0.8 1.3 0.8 1.3l59.6 27.3m-16-16.9c-6.1-6.6-13.6-6.2-18.8-12.4-5.2-6.3-11.5-6.4-14.6-7.8-2.9-1.6-2.7-4.4-3.6-4.1-1.1 0.4-0.6 3.5 2.9 6.3 3.6 2.6 7 1.2 13.4 8.7 6.5 7.6 11.5 5.8 17 12.9" class="s2" id="a"></path>
		<path d="m322.4 237.7l-48.1-44.5c0 0-0.9-0.9-1.5-0.4-0.5 0.7 0.3 1.6 0.3 1.6l44.6 48m-8.3-21.7c-3.1-8.5-10.1-11-12.6-18.7-2.4-7.8-8.2-10.3-10.5-12.8-2.1-2.5-0.9-5-1.8-5.1-1.1-0.1-1.9 2.9 0.3 6.9 2.3 3.8 6 3.8 9 13.2 3.1 9.4 8.4 9.7 10.8 18.4" class="s2" id="a"></path>
		<path d="m296.6 244.1c-8.7 0.5-12.5 5.4-20.5 4.4 6.3 2.2 11.2-2.9 20.4-2.6m22.8-7.4l-40.9 18.7 42.2-15.7" class="s3" id="b"></path>
		<path d="m296.8 234.8c-8.2-2.8-13.6 0.2-20.6-3.7 5 4.3 11.4 1.5 19.8 5.3m24 1.9l-45 1.7 44.9 1.6" class="s3" id="b"></path>
		<path d="m300.5 226.4c-6.4-5.8-12.6-5.1-17.6-11.4 3 5.9 10 5.8 16.3 12.5m21.4 10.9l-42.1-15.6 40.8 18.7" class="s3" id="b"></path>
		<path d="m307.2 219.9c-3.7-7.8-9.7-9.4-11.9-17.2 0.5 6.6 7 9.2 10.3 17.8m15.6 18.3l-33-30.6 30.6 32.9" class="s3" id="b"></path>
	</g>
	<g id="c">
		<path d="m323.1 238.8l-27.4-59.6c0 0-0.5-1.1-1.2-0.8-0.8 0.4-0.3 1.5-0.3 1.5l22.7 61.4m0.7-23.2c0.4-9-5.2-14-4.5-22.1 0.8-8.1-3.7-12.6-4.8-15.8-1-3.2 1.1-5 0.3-5.5-1-0.5-2.9 2-2.3 6.5 0.6 4.5 4 5.8 3.2 15.7-0.7 9.9 4.1 12.2 2.9 21.1" class="s2" id="a"></path>
		<path d="m323.3 240l-2.5-65.4c0 0 0-1.3-0.8-1.3-0.9 0-0.9 1.3-0.9 1.3l-2.5 65.5m9.6-21.2c3.8-8.2 0.5-15 4.2-22.2 3.9-7.2 1.5-13.1 1.7-16.4 0.3-3.3 2.9-4.2 2.3-5-0.7-0.8-3.4 0.8-4.6 5.2-1.1 4.3 1.5 6.8-3 15.7-4.5 8.8-0.9 12.8-5.4 20.6" class="s2" id="a"></path>
		<path d="m323.1 241.3l22.7-61.4c0 0 0.5-1.2-0.3-1.5-0.8-0.3-1.3 0.8-1.3 0.8l-27.3 59.6m16.9-16c6.6-6.1 6.2-13.6 12.4-18.8 6.3-5.2 6.4-11.5 7.8-14.6 1.6-2.9 4.4-2.7 4.1-3.6-0.4-1.1-3.5-0.6-6.3 2.9-2.6 3.6-1.2 7-8.7 13.4-7.6 6.5-5.8 11.5-12.9 17" class="s2" id="a"></path>
		<path d="m322.3 242.4l44.5-48.1c0 0 0.9-0.9 0.4-1.5-0.7-0.5-1.6 0.3-1.6 0.3l-48 44.6m21.7-8.3c8.5-3.1 11-10.1 18.7-12.6 7.8-2.4 10.3-8.2 12.8-10.5 2.5-2.1 5-0.9 5.1-1.8 0.1-1.1-2.9-1.9-6.9 0.3-3.8 2.3-3.8 6-13.2 9-9.4 3.1-9.7 8.4-18.4 10.8" class="s2" id="a"></path>
		<path d="m315.9 216.6c-0.5-8.7-5.4-12.5-4.4-20.5-2.2 6.3 2.9 11.2 2.6 20.4m7.4 22.8l-18.7-40.9 15.7 42.2" class="s3" id="b"></path>
		<path d="m325.2 216.8c2.8-8.2-0.2-13.6 3.7-20.6-4.3 5-1.5 11.4-5.3 19.8m-1.9 24l-1.7-45-1.6 44.9" class="s3" id="b"></path>
		<path d="m333.6 220.5c5.8-6.4 5.1-12.6 11.4-17.6-5.9 3-5.8 10-12.5 16.3m-10.9 21.4l15.6-42.1-18.7 40.8" class="s3" id="b"></path>
		<path d="m340.1 227.2c7.8-3.7 9.4-9.7 17.2-11.9-6.6 0.5-9.2 7-17.8 10.3m-18.3 15.6l30.6-33-32.9 30.6" class="s3" id="b"></path>
	</g>
	<g id="c">
		<path d="m321.2 243.1l59.6-27.4c0 0 1.1-0.5 0.8-1.2-0.4-0.8-1.5-0.3-1.5-0.3l-61.4 22.7m23.2 0.7c9 0.4 14-5.2 22.1-4.5 8.1 0.8 12.6-3.7 15.8-4.8 3.2-1 5 1.1 5.5 0.3 0.5-1-2-2.9-6.5-2.3-4.5 0.6-5.8 4-15.7 3.2-9.9-0.7-12.2 4.1-21.1 2.9" class="s2" id="a"></path>
		<path d="m320 243.3l65.4-2.5c0 0 1.3 0 1.3-0.8 0-0.9-1.3-0.9-1.3-0.9l-65.5-2.5m21.2 9.6c8.2 3.8 15 0.5 22.2 4.2 7.2 3.9 13.1 1.5 16.4 1.7 3.3 0.3 4.2 2.9 5 2.3 0.8-0.7-0.8-3.4-5.2-4.6-4.3-1.1-6.8 1.5-15.7-3-8.8-4.5-12.8-0.9-20.6-5.4" class="s2" id="a"></path>
		<path d="m318.7 243.1l61.4 22.7c0 0 1.2 0.5 1.5-0.3 0.3-0.8-0.8-1.3-0.8-1.3l-59.6-27.3m16 16.9c6.1 6.6 13.6 6.2 18.8 12.4 5.2 6.3 11.5 6.4 14.6 7.8 2.9 1.6 2.7 4.4 3.6 4.1 1.1-0.4 0.6-3.5-2.9-6.3-3.6-2.6-7-1.2-13.4-8.7-6.5-7.6-11.5-5.8-17-12.9" class="s2" id="a"></path>
		<path d="m317.6 242.3l48.1 44.5c0 0 0.9 0.9 1.5 0.4 0.5-0.7-0.3-1.6-0.3-1.6l-44.6-48m8.3 21.7c3.1 8.5 10.1 11 12.6 18.7 2.4 7.8 8.2 10.3 10.5 12.8 2.1 2.5 0.9 5 1.8 5.1 1.1 0.1 1.9-2.9-0.3-6.9-2.3-3.8-6-3.8-9-13.2-3.1-9.4-8.4-9.7-10.8-18.4" class="s2" id="a"></path>
		<path d="m343.4 235.9c8.7-0.5 12.5-5.4 20.5-4.4-6.3-2.2-11.2 2.9-20.4 2.6m-22.8 7.4l40.9-18.7-42.2 15.7" class="s3" id="b"></path>
		<path d="m343.2 245.2c8.2 2.8 13.6-0.2 20.6 3.7-5-4.3-11.4-1.5-19.8-5.3m-24-1.9l45-1.7-44.9-1.6" class="s3" id="b"></path>
		<path d="m339.5 253.6c6.4 5.8 12.6 5.1 17.6 11.4-3-5.9-10-5.8-16.3-12.5m-21.4-10.9l42.1 15.6-40.8-18.7" class="s3" id="b"></path>
		<path d="m332.8 260.1c3.7 7.8 9.7 9.4 11.9 17.2-0.5-6.6-7-9.2-10.3-17.8m-15.6-18.3l33 30.6-30.6-32.9" class="s3" id="b"></path>
	</g>
	<path d="m320 266.7c-14.8 0-26.7-11.9-26.7-26.7 0-14.8 11.9-26.7 26.7-26.7 14.8 0 26.7 11.9 26.7 26.7 0 14.8-11.9 26.7-26.7 26.7z" class="s4"></path>
	<path d="m329.1 234.3q0.7 0 1.4 0.1 0.7 0.2 1.4 0.5 0.6 0.3 1.2 0.7 0.6 0.4 1.1 0.9c-3.1 2.2-7.7 2.1-9.7 0.2 1-1.6 2.8-2.4 4.5-2.4zm-0.1 0.4q0 0 0.1 0 0 0 0 0zm0.1 0c-1.4 0-2.8 0.6-3.8 2 2.1 1.6 5.4 1.9 7.4-0.4-0.2-0.8-1.9-1.6-3.6-1.6z" class="s5" fill-rule="evenodd" id="h"></path>
	<path d="m329.4 233c-2.7 0-3.3 0.6-4.5 1.7-1.2 1-1.9 0.8-2 1-0.3 0.2 0 0.8 0.3 0.6 0.5-0.2 1.3-0.6 2.5-1.6 1.2-1 2.5-1 3.7-1 3.7 0 5.7 3 6.1 2.8 0.5-0.2-2-3.5-6.1-3.5z" class="s3" id="d"></path>
	<path d="m336.8 234.3c-4.7-4.1-10.7-4.8-14-1.7q-0.3 0.4-0.5 0.8-0.3 0.4-0.5 0.8-0.1 0.4-0.3 0.9-0.1 0.4-0.2 0.9-0.6 3.6 2.1 7.5l-0.8 0.4c-1.6-3.1-2.2-6.3-1.6-9.4l0.6-2.3c4.5-3.7 10.7-4 15.2 2z" class="s3" id="e"></path>
	<path d="m329 238.1c-1 0-1.8-0.8-1.8-1.8 0-1 0.8-1.8 1.8-1.8 1 0 1.8 0.8 1.8 1.8 0 1-0.8 1.8-1.8 1.8z" class="s3" id="f"></path>
	<path d="m334.3 237.5c-3.5 2.7-7 2.5-9 1.3-2-1.3-2-1.7-1.6-1.7 0.4 0 0.8 0.4 2.4 1.3 1.7 0.8 4.1 0.8 8.2-0.9z" class="s3" id="g"></path>
	<path d="m316 243.7c-0.6 0.1-1 0.5-1.2 1.1-0.3 0.5-0.2 1.1 0.1 1.6 0.3 0.5 0.8 0.8 1.4 0.8 0.6 0.1 1.1-0.2 1.5-0.6q0.2 0.2 0.5 0.3 0.3 0.1 0.6 0.2 0.2 0 0.5 0.1 0.3 0 0.6 0h0.2c0.6 0 1.6-0.1 2.3-0.6 0.3 0.5 0.9 0.7 1.5 0.7 0.5 0 0.9-0.1 1.3-0.4 0.4-0.3 0.6-0.8 0.6-1.3 0.1-0.4-0.1-0.9-0.4-1.3-0.3-0.3-0.7-0.6-1.2-0.6 0.5 0.2 0.8 0.6 0.8 1.2 0 0.3-0.1 0.6-0.4 0.8-0.2 0.3-0.5 0.4-0.8 0.4-0.3 0-0.6-0.1-0.8-0.4-0.3-0.2-0.4-0.5-0.4-0.8q-0.2 0.4-0.4 0.7-0.3 0.3-0.7 0.5-0.3 0.2-0.7 0.4-0.4 0.1-0.8 0.1-0.4 0-0.8-0.2-0.4-0.1-0.7-0.3-0.3-0.2-0.6-0.5-0.2-0.3-0.4-0.7c0 0.7-0.6 1.2-1.3 1.2-0.6 0-1.2-0.6-1.2-1.2 0-0.6 0.3-1 0.8-1.2zm2 5.4c-2.1 0-3 2-4.8 3.1 1-0.4 1.8-1.2 3.3-2 1.4-0.8 2.6 0.2 3.5 0.2 0.8 0 2-1 3.5-0.2 1.4 0.8 2.3 1.6 3.3 2-1.9-1.2-2.7-3-4.8-3-0.4 0-1.2 0.2-2 0.6z" class="s3"></path>
	<path d="m317.2 251.6c-0.8 0-1.8 0.2-3.4 0.6 3.7-0.8 4.5 0.5 6.2 0.5 1.6 0 2.5-1.3 6.1-0.5-4-1.2-4.9-0.4-6.1-0.4-0.8 0-1.4-0.3-2.8-0.2z" class="s3"></path>
	<path d="m314 252.2h-0.8c4.3 0.5 2.3 3 6.8 3 4.5 0 2.5-2.5 6.8-3-4.5-0.4-3.1 2.3-6.8 2.3-3.5 0-2.4-2.3-6-2.3z" class="s3"></path>
	<path d="m323.7 258.9c0-1-0.4-1.9-1.1-2.6-0.7-0.7-1.6-1.1-2.6-1.1-1 0-1.9 0.4-2.6 1.1-0.7 0.7-1.1 1.6-1.1 2.6 0.2-0.8 0.7-1.6 1.3-2.1 0.7-0.5 1.5-0.8 2.4-0.8 0.9 0 1.7 0.3 2.4 0.8 0.6 0.5 1.1 1.3 1.3 2.1z" class="s3"></path>
	<path d="m303.4 234.3c4.7-4.1 10.7-4.8 14-1.7q0.3 0.4 0.5 0.8 0.3 0.4 0.5 0.8 0.1 0.4 0.3 0.9 0.1 0.4 0.2 0.9 0.6 3.6-2.1 7.5l0.8 0.4c1.6-3.1 2.2-6.3 1.6-9.4l-0.6-2.3c-4.5-3.7-10.7-4-15.2 2z" class="s3" id="e"></path>
	<path d="m310.8 233c2.7 0 3.3 0.6 4.5 1.7 1.2 1 1.9 0.8 2 1 0.3 0.2 0 0.8-0.3 0.6-0.5-0.2-1.3-0.6-2.5-1.6-1.2-1-2.5-1-3.7-1-3.7 0-5.7 3-6.1 2.8-0.5-0.2 2-3.5 6.1-3.5z" class="s3" id="d"></path>
	<path d="m310.7 234.3q0.7 0 1.4 0.1 0.7 0.2 1.4 0.5 0.6 0.3 1.2 0.7 0.6 0.4 1.1 0.9c-3.1 2.2-7.7 2.1-9.7 0.2 1-1.6 2.8-2.4 4.5-2.4zm-0.1 0.4q0 0 0.1 0 0 0 0 0zm0.1 0c-1.4 0-2.8 0.6-3.8 2 2.1 1.6 5.4 1.9 7.4-0.4-0.2-0.8-1.9-1.6-3.6-1.6z" class="s5" fill-rule="evenodd" id="h"></path>
	<path d="m310.9 238.1c-1 0-1.8-0.8-1.8-1.8 0-1 0.8-1.8 1.8-1.8 1 0 1.8 0.8 1.8 1.8 0 1-0.8 1.8-1.8 1.8z" class="s3" id="f"></path>
	<path d="m305.9 237.5c3.5 2.7 7 2.5 9 1.3 2-1.3 2-1.7 1.6-1.7-0.4 0-0.8 0.4-2.4 1.3-1.7 0.8-4.1 0.8-8.2-0.9z" class="s3" id="g"></path>
</svg>